<svg width="17" height="19" viewBox="0 0 17 19" fill="none" xmlns="http://www.w3.org/2000/svg">
<path id="Vector" d="M5.25 17.9954H1C1 14.3441 3.9599 11.3842 7.61111 11.3842C7.76987 11.3842 7.92731 11.3898 8.08333 11.4009M11.3889 4.77314C11.3889 6.85955 9.69748 8.55092 7.61111 8.55092C5.5247 8.55092 3.83333 6.85955 3.83333 4.77314C3.83333 2.68673 5.5247 0.995361 7.61111 0.995361C9.69748 0.995361 11.3889 2.68673 11.3889 4.77314ZM9.11259 17.9954L11.0251 17.6129C11.1919 17.5795 11.2753 17.5628 11.353 17.5323C11.422 17.5053 11.4876 17.4702 11.5484 17.4278C11.6169 17.38 11.677 17.3199 11.7973 17.1996L15.7237 13.2731C16.2453 12.7515 16.2453 11.9059 15.7237 11.3842C15.2022 10.8626 14.3564 10.8626 13.8348 11.3842L9.90838 15.3107C9.78815 15.431 9.72799 15.4911 9.6802 15.5596C9.63779 15.6204 9.60276 15.686 9.57565 15.755C9.54514 15.8328 9.52852 15.9162 9.49509 16.0829L9.11259 17.9954Z" stroke="black" stroke-width="1.41702" stroke-linecap="round" stroke-linejoin="round"/>
</svg>
