<svg width="26" height="26" viewBox="0 0 26 26" fill="none" xmlns="http://www.w3.org/2000/svg">
<g clip-path="url(#clip0_294_490)">
<path d="M19.4862 0.0610352H5.9142C2.75844 0.0610352 0.200195 2.61928 0.200195 5.77504V19.347C0.200195 22.5028 2.75844 25.061 5.9142 25.061H19.4862C22.6419 25.061 25.2002 22.5028 25.2002 19.347V5.77504C25.2002 2.61928 22.6419 0.0610352 19.4862 0.0610352Z" fill="#7B73AE"/>
<path d="M10.8542 13.527H8.9392C8.6302 13.527 8.5332 13.415 8.5332 13.133V10.862C8.5332 10.562 8.6492 10.467 8.9392 10.467H10.8542V8.81501C10.8542 8.06501 10.9892 7.35101 11.3762 6.69401C11.7822 6.01801 12.3622 5.56701 13.0962 5.30401C13.5752 5.13813 14.0793 5.05593 14.5862 5.06101H16.4802C16.7502 5.06101 16.8672 5.17301 16.8672 5.43601V7.57601C16.8672 7.83901 16.7512 7.95201 16.4802 7.95201C15.9582 7.95201 15.4362 7.95201 14.9142 7.97001C14.3922 7.97001 14.1212 8.21401 14.1212 8.74001C14.1012 9.30301 14.1212 9.84801 14.1212 10.43H16.3642C16.6742 10.43 16.7892 10.542 16.7892 10.843V13.114C16.7892 13.414 16.6932 13.509 16.3642 13.509H14.1212V19.629C14.1212 19.948 14.0252 20.06 13.6772 20.06H11.2602C10.9702 20.06 10.8542 19.948 10.8542 19.666V13.527Z" fill="white"/>
</g>
<defs>
<clipPath id="clip0_294_490">
<rect width="26" height="26" fill="white"/>
</clipPath>
</defs>
</svg>
