<svg width="26" height="26" viewBox="0 0 26 26" fill="none" xmlns="http://www.w3.org/2000/svg">
<g clip-path="url(#clip0_294_488)">
<path fill-rule="evenodd" clip-rule="evenodd" d="M17.8543 0.139927C15.5543 0.0319271 9.85726 0.0369271 7.55526 0.139927C5.53326 0.232927 3.74826 0.720927 2.31026 2.15993C0.158265 4.31293 0.178265 7.13393 0.206265 11.1069C0.209265 11.5739 0.213265 12.0569 0.213265 12.5569C0.213265 13.0239 0.210265 13.4759 0.208265 13.9129C0.185265 18.0189 0.170264 20.8099 2.31026 22.9499C4.46526 25.1049 7.31626 25.0829 11.2453 25.0539C11.7153 25.0509 12.2023 25.0469 12.7053 25.0469H12.7723C17.5363 25.0469 19.1923 25.0469 20.8863 24.3909C23.2023 23.4909 24.9503 21.4219 25.1213 17.7039C25.2293 15.4039 25.2233 9.70793 25.1213 7.40593C24.9153 3.01693 22.5593 0.355927 17.8543 0.138927V0.139927ZM21.6283 6.01293C21.6339 6.25096 21.5919 6.48771 21.5047 6.70927C21.4175 6.93082 21.2869 7.13271 21.1205 7.30305C20.9542 7.47339 20.7554 7.60875 20.536 7.70116C20.3166 7.79358 20.0809 7.84119 19.8428 7.84119C19.6047 7.84119 19.369 7.79358 19.1495 7.70116C18.9301 7.60875 18.7314 7.47339 18.565 7.30305C18.3987 7.13271 18.268 6.93082 18.1808 6.70927C18.0936 6.48771 18.0516 6.25096 18.0573 6.01293C18.0683 5.5467 18.2613 5.10328 18.5949 4.77744C18.9285 4.4516 19.3764 4.26919 19.8428 4.26919C20.3091 4.26919 20.757 4.4516 21.0906 4.77744C21.4243 5.10328 21.6172 5.5467 21.6283 6.01293ZM12.7003 17.3219C13.9632 17.3219 15.1745 16.8202 16.0675 15.9272C16.9606 15.0341 17.4623 13.8229 17.4623 12.5599C17.4623 11.297 16.9606 10.0857 16.0675 9.19269C15.1745 8.29964 13.9632 7.79793 12.7003 7.79793C11.4373 7.79793 10.2261 8.29964 9.33302 9.19269C8.43997 10.0857 7.93826 11.297 7.93826 12.5599C7.93826 13.8229 8.43997 15.0341 9.33302 15.9272C10.2261 16.8202 11.4373 17.3219 12.7003 17.3219Z" fill="#7B73AE"/>
</g>
<defs>
<clipPath id="clip0_294_488">
<rect width="26" height="26" fill="white"/>
</clipPath>
</defs>
</svg>
