<svg width="26" height="26" viewBox="0 0 26 26" fill="none" xmlns="http://www.w3.org/2000/svg">
<g clip-path="url(#clip0_294_493)">
<path d="M19.4862 0.0610352H5.9142C2.75844 0.0610352 0.200195 2.61928 0.200195 5.77504V19.347C0.200195 22.5028 2.75844 25.061 5.9142 25.061H19.4862C22.6419 25.061 25.2002 22.5028 25.2002 19.347V5.77504C25.2002 2.61928 22.6419 0.0610352 19.4862 0.0610352Z" fill="#7B73AE"/>
<path d="M8.6992 9.88006H5.6802C5.64833 9.87993 5.61676 9.88609 5.58728 9.89819C5.5578 9.91029 5.53101 9.9281 5.50843 9.95058C5.48585 9.97307 5.46794 9.99979 5.45571 10.0292C5.44349 10.0586 5.4372 10.0902 5.4372 10.1221V19.8181C5.4372 19.9511 5.5462 20.0601 5.6802 20.0601H8.6982C8.76238 20.0601 8.82393 20.0346 8.86932 19.9892C8.9147 19.9438 8.9402 19.8822 8.9402 19.8181V10.1221C8.9402 10.0582 8.91498 9.99697 8.87002 9.95164C8.82507 9.90632 8.76303 9.88059 8.6992 9.88006ZM7.1922 5.06006C6.66431 5.06032 6.1581 5.27 5.78464 5.64309C5.41118 6.01617 5.20099 6.52218 5.2002 7.05006C5.2002 8.14706 6.0932 9.04006 7.1922 9.04006C8.2892 9.04006 9.1822 8.14706 9.1822 7.05006C9.1822 5.95306 8.2892 5.06006 7.1922 5.06006ZM16.3762 9.64006C15.1642 9.64006 14.2682 10.1601 13.7242 10.7531V10.1231C13.7242 10.0589 13.6987 9.99732 13.6533 9.95194C13.6079 9.90656 13.5464 9.88106 13.4822 9.88106H10.5922C10.5603 9.88093 10.5288 9.88709 10.4993 9.89919C10.4698 9.9113 10.443 9.9291 10.4204 9.95158C10.3979 9.97407 10.3799 10.0008 10.3677 10.0302C10.3555 10.0596 10.3492 10.0912 10.3492 10.1231V19.8181C10.3492 19.9521 10.4572 20.0611 10.5912 20.0611H13.6032C13.6351 20.0611 13.6666 20.0548 13.696 20.0425C13.7255 20.0303 13.7522 20.0124 13.7747 19.9898C13.7972 19.9672 13.815 19.9405 13.8271 19.911C13.8392 19.8815 13.8453 19.8499 13.8452 19.8181V15.0211C13.8452 13.4051 14.2852 12.7751 15.4112 12.7751C16.6382 12.7751 16.7362 13.7851 16.7362 15.1051V19.8181C16.7362 19.9521 16.8442 20.0611 16.9782 20.0611H19.9912C20.0231 20.0611 20.0546 20.0548 20.084 20.0425C20.1135 20.0303 20.1402 20.0124 20.1627 19.9898C20.1852 19.9672 20.203 19.9405 20.2151 19.911C20.2272 19.8815 20.2333 19.8499 20.2332 19.8181V14.5001C20.2332 12.0971 19.7752 9.64006 16.3762 9.64006Z" fill="white"/>
</g>
<defs>
<clipPath id="clip0_294_493">
<rect width="26" height="26" fill="white"/>
</clipPath>
</defs>
</svg>
