<svg width="18" height="18" viewBox="0 0 18 18" fill="none" xmlns="http://www.w3.org/2000/svg">
<g id="logout-2-svgrepo-com 1" clip-path="url(#clip0_147_348)">
<path id="Vector" d="M6.75146 5.24988C6.76055 3.61861 6.83288 2.73517 7.40917 2.15889C8.0682 1.49988 9.12885 1.49988 11.2502 1.49988H12.0002C14.1215 1.49988 15.1822 1.49988 15.8411 2.15889C16.5002 2.8179 16.5002 3.87856 16.5002 5.99988V11.9999C16.5002 14.1212 16.5002 15.1818 15.8411 15.8409C15.1822 16.4999 14.1215 16.4999 12.0002 16.4999H11.2502C9.12885 16.4999 8.0682 16.4999 7.40917 15.8409C6.83288 15.2646 6.76055 14.3811 6.75146 12.7499" stroke="#1C274C" stroke-width="1.5" stroke-linecap="round"/>
<path id="Vector_2" d="M11.25 9H1.5M1.5 9L4.125 6.75M1.5 9L4.125 11.25" stroke="#1C274C" stroke-width="1.5" stroke-linecap="round" stroke-linejoin="round"/>
</g>
<defs>
<clipPath id="clip0_147_348">
<rect width="18" height="18" fill="white"/>
</clipPath>
</defs>
</svg>
