<svg width="30" height="30" viewBox="0 0 30 30" fill="none" xmlns="http://www.w3.org/2000/svg">
<g clip-path="url(#clip0_294_458)">
<path d="M0.800626 3.61319L3.07875 5.89132C5.19736 3.11771 8.21664 1.16948 11.6168 0.382014C15.017 -0.405454 18.5854 0.0171094 21.7076 1.57696C24.8298 3.13681 27.3105 5.73635 28.7227 8.92808C30.1349 12.1198 30.3902 15.704 29.4447 19.0637C28.4991 22.4233 26.4119 25.3482 23.5423 27.3349C20.6727 29.3215 17.2003 30.2456 13.7228 29.948C10.2453 29.6504 6.98036 28.1498 4.49002 25.7045C1.99967 23.2592 0.439733 20.0222 0.0787507 16.5507C0.0404601 16.1795 0.151204 15.8082 0.386621 15.5187C0.622038 15.2291 0.962843 15.0449 1.33406 15.0066C1.70528 14.9683 2.07651 15.0791 2.36608 15.3145C2.65565 15.5499 2.83983 15.8907 2.87813 16.2619C3.17374 19.0977 4.45419 21.74 6.49669 23.7293C8.53919 25.7185 11.2145 26.9287 14.057 27.1493C16.8996 27.3699 19.7295 26.5869 22.0545 24.9366C24.3794 23.2862 26.0522 20.873 26.7817 18.1169C27.5112 15.3607 27.2514 12.4359 26.0474 9.85151C24.8433 7.2671 22.7713 5.18661 20.1919 3.97202C17.6124 2.75743 14.6888 2.48563 11.9296 3.20389C9.17045 3.92216 6.75044 5.58503 5.09063 7.90319L7.63688 10.4494C7.7026 10.515 7.74738 10.5986 7.76554 10.6896C7.78369 10.7807 7.77441 10.8751 7.73886 10.9608C7.70331 11.0466 7.6431 11.1198 7.56586 11.1713C7.48862 11.2228 7.39783 11.2502 7.305 11.2501H0.468751C0.34443 11.2501 0.225202 11.2007 0.137294 11.1128C0.0493868 11.0249 7.5061e-07 10.9056 7.5061e-07 10.7813V3.94507C-0.000165342 3.85224 0.0272363 3.76144 0.0787318 3.6842C0.130227 3.60696 0.203498 3.54675 0.289254 3.51121C0.37501 3.47566 0.46939 3.46637 0.56043 3.48453C0.651469 3.50269 0.735067 3.54747 0.800626 3.61319ZM14.5313 7.50007C14.9042 7.50007 15.2619 7.64822 15.5256 7.91195C15.7893 8.17567 15.9375 8.53336 15.9375 8.90632V14.5163L19.74 16.0388C20.0751 16.1849 20.3401 16.4557 20.479 16.7939C20.6178 17.132 20.6195 17.511 20.4837 17.8503C20.3479 18.1897 20.0852 18.4629 19.7515 18.6119C19.4177 18.761 19.039 18.7742 18.6956 18.6488L14.0081 16.7738C13.7476 16.6691 13.5243 16.4889 13.3669 16.2564C13.2096 16.0239 13.1253 15.7496 13.125 15.4688V8.90632C13.125 8.53336 13.2732 8.17567 13.5369 7.91195C13.8006 7.64822 14.1583 7.50007 14.5313 7.50007Z" fill="black"/>
</g>
<defs>
<clipPath id="clip0_294_458">
<rect width="30" height="30" fill="white"/>
</clipPath>
</defs>
</svg>
