<svg width="26" height="26" viewBox="0 0 26 26" fill="none" xmlns="http://www.w3.org/2000/svg">
<g clip-path="url(#clip0_294_485)">
<path d="M19.4862 0.0600586H5.9142C2.75844 0.0600586 0.200195 2.6183 0.200195 5.77406V19.3461C0.200195 22.5018 2.75844 25.0601 5.9142 25.0601H19.4862C22.6419 25.0601 25.2002 22.5018 25.2002 19.3461V5.77406C25.2002 2.6183 22.6419 0.0600586 19.4862 0.0600586Z" fill="#7B73AE"/>
<path d="M14.1322 11.4111L19.7192 5.06006H18.3952L13.5432 10.5751L9.6702 5.06006H5.2002L11.0602 13.4001L5.2002 20.0601H6.5252L11.6482 14.2361L15.7402 20.0601H20.2092L14.1302 11.4101L14.1322 11.4111ZM12.3182 13.4731L11.7242 12.6431L7.0012 6.03406H9.0342L12.8462 11.3671L13.4402 12.1971L18.3952 19.1291H16.3622L12.3182 13.4731Z" fill="white"/>
</g>
<defs>
<clipPath id="clip0_294_485">
<rect width="26" height="26" fill="white"/>
</clipPath>
</defs>
</svg>
