<svg width="31" height="31" viewBox="0 0 31 31" fill="none" xmlns="http://www.w3.org/2000/svg">
<path d="M15.4996 12.9168V24.5418M15.4996 12.9168L19.3746 16.7918M15.4996 12.9168L11.6246 16.7918M22.6038 19.3751C24.5658 19.3751 25.8329 17.785 25.8329 15.823C25.8329 15.0462 25.5782 14.2909 25.1078 13.6727C24.6375 13.0544 23.9775 12.6074 23.2289 12.4001C23.1137 10.9514 22.5133 9.58396 21.5248 8.51875C20.5363 7.45355 19.2174 6.75288 17.7813 6.53002C16.3453 6.30716 14.876 6.57514 13.6112 7.29063C12.3463 8.00613 11.3597 9.12731 10.8108 10.4729C9.65534 10.1526 8.41993 10.3045 7.37639 10.895C6.33284 11.4856 5.56664 12.4665 5.24633 13.622C4.92603 14.7775 5.07786 16.0129 5.66843 17.0565C6.259 18.1 7.23992 18.8662 8.39542 19.1865" stroke="white" stroke-width="2" stroke-linecap="round" stroke-linejoin="round"/>
</svg>
